<svg width="19" height="20" viewBox="0 0 19 20" fill="none" xmlns="http://www.w3.org/2000/svg">
<g id="user">
<path id="Path 4" d="M4.33804 16.0424C4.33804 16.0424 7.09861 14.8593 7.88734 14.0706C8.67607 13.2819 6.30987 13.2819 6.30987 9.33819C6.30987 5.39453 9.4648 5.39453 9.4648 5.39453C9.4648 5.39453 12.6197 5.39453 12.6197 9.33819C12.6197 13.2819 10.2535 13.2819 11.0423 14.0706C11.831 14.8593 14.5916 16.0424 14.5916 16.0424" stroke="#1468B6" stroke-width="0.788732" stroke-linecap="round"/>
<path id="Oval" fill-rule="evenodd" clip-rule="evenodd" d="M9.46478 18.0149C13.8208 18.0149 17.3521 14.4836 17.3521 10.1276C17.3521 5.77151 13.8208 2.24023 9.46478 2.24023C5.10873 2.24023 1.57745 5.77151 1.57745 10.1276C1.57745 14.4836 5.10873 18.0149 9.46478 18.0149Z" stroke="#1468B6" stroke-width="0.788732"/>
</g>
</svg>
